<svg width="50" height="84" viewBox="0 0 50 84" fill="none" xmlns="http://www.w3.org/2000/svg">
<path d="M19.299 48.2715H30.1927C32.0029 48.2739 33.7744 47.7467 35.2887 46.7549C36.8031 45.7631 37.9943 44.35 38.7156 42.6896L19.299 48.2715ZM40.6264 3.38239L40.6266 3.38259L46.7029 10.059C46.7031 10.0592 46.7032 10.0593 46.7033 10.0594C47.8428 11.3173 48.5961 12.8768 48.8731 14.5514C49.1501 16.2259 48.9391 17.9448 48.2654 19.5027C48.2653 19.5029 48.2652 19.503 48.2651 19.5032L38.2572 42.49L38.257 42.4904C37.5746 44.0613 36.4476 45.3983 35.0148 46.3366C33.582 47.275 31.9061 47.7738 30.1933 47.7715H30.1927H19.299H19.2983C17.5856 47.7738 15.9096 47.275 14.4768 46.3366C13.0441 45.3983 11.9171 44.0613 11.2346 42.4904L11.2345 42.49L1.22651 19.5032C1.22644 19.5031 1.22637 19.5029 1.22631 19.5028C0.552512 17.9449 0.341504 16.226 0.618506 14.5514C0.895503 12.8768 1.64878 11.3174 2.78832 10.0595C2.78845 10.0593 2.78857 10.0592 2.7887 10.059L8.86503 3.38259L8.86521 3.38239C9.69074 2.47434 10.6969 1.74887 11.8193 1.25249C12.9416 0.75612 14.1553 0.499809 15.3825 0.5H15.3826H34.109H34.1091C35.3363 0.499809 36.55 0.75612 37.6724 1.25249C38.7947 1.74887 39.8009 2.47434 40.6264 3.38239ZM37.7598 22.4515L37.7601 22.4416L37.7601 22.4317C37.7535 18.9837 36.3798 15.679 33.9402 13.2423C31.5006 10.8056 28.1942 9.43588 24.7462 9.43341H24.7455C21.2974 9.43588 17.9911 10.8056 15.5515 13.2423C13.1119 15.679 11.7381 18.9837 11.7315 22.4317L11.7315 22.4416L11.7319 22.4515C12.3802 39.6663 37.1098 39.6753 37.7598 22.4515Z" stroke="white"/>
<path d="M28.762 68.9425L28.762 68.9425L28.766 68.9364C29.3573 68.0285 29.6816 66.9727 29.7019 65.8895C29.7222 64.8069 29.4382 63.7403 28.882 62.8113C27.8326 61.0296 25.993 59.2924 24.1889 57.5886C23.9595 57.372 23.7306 57.1559 23.5041 56.9403C21.6869 55.2112 20.01 53.5118 19.1033 51.7523C20.6042 51.7666 23.2586 51.7748 25.8104 51.7588C27.3575 51.7492 28.8699 51.7306 30.0666 51.6991C30.6646 51.6833 31.1869 51.6643 31.5965 51.6412C31.824 51.6284 32.0301 51.6138 32.1994 51.596L36.6424 56.717L36.6513 56.7272L36.6607 56.737C39.009 59.1635 41.3307 63.9018 41.3166 68.8264C41.3096 71.2776 40.7242 73.7634 39.2868 76.0354C37.8506 78.3055 35.5461 80.3899 32.0563 82.0131C27.9419 83.8436 23.274 83.9896 19.0531 82.4197L19.0524 82.4195C16.766 81.5729 14.5121 79.9696 12.9284 77.9808C11.344 75.9912 10.465 73.6634 10.8201 71.3503L10.825 71.3179L10.8258 71.2852C10.8961 68.0251 10.4106 64.7768 9.39028 61.6797L9.38617 61.6672L9.38142 61.655C9.24509 61.3043 9.22499 60.919 9.32409 60.556C9.42319 60.1929 9.63624 59.8713 9.93187 59.6385C10.2275 59.4056 10.5901 59.2739 10.9662 59.2626C11.3424 59.2513 11.7122 59.3611 12.0213 59.5759L12.0211 59.576L12.033 59.5838C14.4943 61.1926 16.4252 63.4927 17.5835 66.195C17.9741 67.4565 18.6005 68.6325 19.4294 69.6607C20.7688 71.4462 22.6018 72.0527 24.3603 71.8005C26.0974 71.5513 27.7343 70.471 28.762 68.9425ZM31.1156 28.8025C29.426 30.4921 27.1353 31.4427 24.7458 31.4459C22.3563 31.4427 20.0656 30.4921 18.376 28.8025C16.6884 27.1149 15.738 24.8276 15.7326 22.4412C16.1681 10.5302 33.3205 10.526 33.7591 22.4413C33.7536 24.8277 32.8032 27.1149 31.1156 28.8025Z" stroke="white"/>
</svg>
